<svg xmlns="http://www.w3.org/2000/svg" width="173.796" height="57.481" viewBox="0 0 173.796 57.481">
  <g id="Logotype" transform="translate(-1061.27 -824.366)">
    <g id="Group_4" data-name="Group 4" transform="translate(21.27 19.366)">
      <g id="Group_3" data-name="Group 3" transform="translate(1104.555 818.563)">
        <g id="Group_1" data-name="Group 1">
          <path id="Path_1" data-name="Path 1" d="M213.806,59.016H209.9V44.1h3.906Z" transform="translate(-209.9 -44.1)" fill="#2699fb"/>
          <path id="Path_2" data-name="Path 2" d="M242.649,45.053a6.957,6.957,0,0,1,2.8,2.614,7.964,7.964,0,0,1,0,7.781,7,7,0,0,1-2.86,2.645,8.94,8.94,0,0,1-4.213.923H232.1V44.1h6.428A8.946,8.946,0,0,1,242.649,45.053Zm-6.674,2.214v8.581h2.645a3.953,3.953,0,0,0,2-.523,3.572,3.572,0,0,0,1.353-1.507,5.22,5.22,0,0,0-.031-4.49,3.6,3.6,0,0,0-1.445-1.507,3.934,3.934,0,0,0-2.091-.554Z" transform="translate(-225.272 -44.1)" fill="#2699fb"/>
        </g>
        <g id="Group_2" data-name="Group 2" transform="translate(0 14.732)">
          <path id="Path_3" data-name="Path 3" d="M213.806,111.825H209.9V100.2h3.906Z" transform="translate(-209.9 -97.678)" fill="#2699fb"/>
          <path id="Path_4" data-name="Path 4" d="M242.71,101.3a4.428,4.428,0,0,1,1.138,3.2v7.258H240.1v-6.182a2.215,2.215,0,0,0-.523-1.538,1.9,1.9,0,0,0-1.415-.554,2.28,2.28,0,0,0-1.6.646,2.725,2.725,0,0,0-.677,1.692v5.936H232.1v-11.5h3.783v1.876a3.882,3.882,0,0,1,1.569-1.507,4.744,4.744,0,0,1,2.245-.523A3.961,3.961,0,0,1,242.71,101.3Z" transform="translate(-225.272 -97.609)" fill="#2699fb"/>
          <path id="Path_5" data-name="Path 5" d="M283.681,105.563a5.254,5.254,0,0,1-1.476.554,7.721,7.721,0,0,1-1.692.215,3.954,3.954,0,0,1-2.768-.984,3.5,3.5,0,0,1-1.046-2.706V97.72h-1.6V95.2h1.6V92h3.752v3.2h2.983V97.72h-2.983v4.336c0,.8.338,1.2.984,1.2a3.962,3.962,0,0,0,1.476-.369Z" transform="translate(-255.048 -92)" fill="#2699fb"/>
          <path id="Path_6" data-name="Path 6" d="M315.934,101.792a6.457,6.457,0,0,1,1.507,4.552,3.951,3.951,0,0,1-.031.677h-8a2.844,2.844,0,0,0,.953,1.507,2.555,2.555,0,0,0,1.661.523,3.4,3.4,0,0,0,1.445-.308,3.839,3.839,0,0,0,1.261-.861l1.968,1.968a5.582,5.582,0,0,1-2.153,1.507,7.529,7.529,0,0,1-2.86.523,6.762,6.762,0,0,1-3.229-.738,5.2,5.2,0,0,1-2.122-2.03,6.234,6.234,0,0,1-.738-3.075,6.354,6.354,0,0,1,.738-3.106,5.264,5.264,0,0,1,2.091-2.091,6.562,6.562,0,0,1,3.137-.738A5.691,5.691,0,0,1,315.934,101.792Zm-2.153,3.2a2.137,2.137,0,0,0-.584-1.6,2.061,2.061,0,0,0-1.538-.615,2.04,2.04,0,0,0-1.507.615,2.8,2.8,0,0,0-.769,1.6Z" transform="translate(-276.168 -97.609)" fill="#2699fb"/>
          <path id="Path_7" data-name="Path 7" d="M355.651,100.623a4.215,4.215,0,0,1,2.153-.523v3.475c-.123,0-.308-.031-.584-.031a3.511,3.511,0,0,0-2.214.646,2.432,2.432,0,0,0-.923,1.784v5.751H350.3v-11.5h3.783v1.938A4.98,4.98,0,0,1,355.651,100.623Z" transform="translate(-307.12 -97.609)" fill="#2699fb"/>
          <path id="Path_8" data-name="Path 8" d="M388.925,100.392V110.88a4.983,4.983,0,0,1-.8,2.8,5.055,5.055,0,0,1-2.214,1.845,7.807,7.807,0,0,1-3.26.646,9.476,9.476,0,0,1-2.8-.4,9.874,9.874,0,0,1-2.368-1.076l1.322-2.614a5.776,5.776,0,0,0,1.691.83,6.442,6.442,0,0,0,1.845.308,3.128,3.128,0,0,0,2.03-.584,1.962,1.962,0,0,0,.738-1.63v-1.23a3.923,3.923,0,0,1-3.291,1.507,4.8,4.8,0,0,1-2.553-.677,4.561,4.561,0,0,1-1.753-1.968,6.245,6.245,0,0,1-.615-2.891,6.519,6.519,0,0,1,.615-2.86,4.335,4.335,0,0,1,1.722-1.907,4.624,4.624,0,0,1,2.522-.677,4.462,4.462,0,0,1,1.938.4,4.035,4.035,0,0,1,1.445,1.138v-1.415h3.783Zm-4.4,7.35a2.836,2.836,0,0,0,.646-1.938,2.918,2.918,0,0,0-.646-1.968,2.126,2.126,0,0,0-1.692-.738,2.059,2.059,0,0,0-1.691.769,3.229,3.229,0,0,0,0,3.875,2.307,2.307,0,0,0,3.383,0Z" transform="translate(-325.539 -97.747)" fill="#2699fb"/>
          <path id="Path_9" data-name="Path 9" d="M429.512,111.687v-1.322a3.449,3.449,0,0,1-1.445,1.107,5.2,5.2,0,0,1-2.03.369,4.114,4.114,0,0,1-2.891-.984,3.385,3.385,0,0,1-1.046-2.614,3.051,3.051,0,0,1,1.138-2.553,5.081,5.081,0,0,1,3.26-.923h3.014v-.123a1.589,1.589,0,0,0-.554-1.292,2.511,2.511,0,0,0-1.63-.461,6.772,6.772,0,0,0-1.63.246,8.7,8.7,0,0,0-1.815.677l-1.046-2.553a15.045,15.045,0,0,1,2.706-.953A10.986,10.986,0,0,1,428.22,100a5.51,5.51,0,0,1,3.691,1.107,3.863,3.863,0,0,1,1.353,3.076v7.5Zm-.83-2.8a1.887,1.887,0,0,0,.83-1.076V106.8h-2.245c-1.076,0-1.6.4-1.6,1.2a1.19,1.19,0,0,0,.4.953,1.625,1.625,0,0,0,1.138.338A2.66,2.66,0,0,0,428.682,108.888Z" transform="translate(-356.838 -97.54)" fill="#2699fb"/>
          <path id="Path_10" data-name="Path 10" d="M471.581,105.563a5.254,5.254,0,0,1-1.476.554,7.721,7.721,0,0,1-1.692.215,3.954,3.954,0,0,1-2.768-.984,3.5,3.5,0,0,1-1.046-2.706V97.72H463V95.2h1.6V92h3.752v3.2h2.983V97.72h-2.983v4.336c0,.8.338,1.2.984,1.2a3.962,3.962,0,0,0,1.476-.369Z" transform="translate(-385.159 -92)" fill="#2699fb"/>
          <path id="Path_11" data-name="Path 11" d="M503.165,100.938A5.314,5.314,0,0,1,505.379,103a5.949,5.949,0,0,1,.8,3.075,6.063,6.063,0,0,1-.8,3.106,5.314,5.314,0,0,1-2.214,2.061,7.1,7.1,0,0,1-3.291.738,7.015,7.015,0,0,1-3.291-.738,5.314,5.314,0,0,1-2.214-2.061,6.6,6.6,0,0,1,0-6.182,5.314,5.314,0,0,1,2.214-2.061,7.7,7.7,0,0,1,6.581,0Zm-5.105,3.106a3.057,3.057,0,0,0-.677,2.091,2.975,2.975,0,0,0,.677,2.061,2.389,2.389,0,0,0,3.568,0,2.975,2.975,0,0,0,.677-2.061,3.057,3.057,0,0,0-.677-2.091,2.389,2.389,0,0,0-3.568,0Z" transform="translate(-406.348 -97.678)" fill="#2699fb"/>
          <path id="Path_12" data-name="Path 12" d="M546.051,100.623a4.215,4.215,0,0,1,2.153-.523v3.475c-.123,0-.308-.031-.584-.031a3.511,3.511,0,0,0-2.214.646,2.432,2.432,0,0,0-.923,1.784v5.751H540.7v-11.5h3.783v1.938A4.417,4.417,0,0,1,546.051,100.623Z" transform="translate(-438.963 -97.609)" fill="#2699fb"/>
        </g>
      </g>
      <path id="Path_13" data-name="Path 13" d="M0,57.481V19.007H12.979V57.481Zm0-44.5V.062H12.979V12.948H0ZM26.388,57.45c-2.676,0-5.382,0-8.058-.031V44.5c2.614,0,5.259.031,8.058.031,7.966,0,14.424-7.842,14.424-15.808S34.353,12.917,26.388,12.917c-2.8,0-5.444,0-8.058.031V.031C21.006.031,23.712,0,26.388,0c15.1,0,27.31,13.624,27.341,28.725C53.729,43.826,41.488,57.45,26.388,57.45Z" transform="translate(1040 805)" fill="#2699fb" fill-rule="evenodd"/>
    </g>
  </g>
</svg>
